<svg width="30" height="30" fill="none" xmlns="http://www.w3.org/2000/svg"><path d="M.938 18.563a.938.938 0 0 1 .937.937v4.688a1.875 1.875 0 0 0 1.875 1.875h22.5a1.875 1.875 0 0 0 1.875-1.875V19.5a.938.938 0 0 1 1.875 0v4.688a3.75 3.75 0 0 1-3.75 3.75H3.75A3.75 3.75 0 0 1 0 24.188V19.5a.938.938 0 0 1 .938-.938Z" fill="#000"/><path d="M14.336 22.226a.937.937 0 0 0 1.328 0l5.625-5.625a.938.938 0 1 0-1.328-1.327l-4.023 4.025V2.813a.938.938 0 0 0-1.876 0v16.486l-4.023-4.025A.939.939 0 0 0 8.71 16.6l5.625 5.625Z" fill="#000"/></svg>